<?xml version="1.0" encoding="utf-8" standalone="no"?>
<!DOCTYPE svg PUBLIC "-//W3C//DTD SVG 1.1//EN"
  "http://www.w3.org/Graphics/SVG/1.1/DTD/svg11.dtd">
<svg xmlns:xlink="http://www.w3.org/1999/xlink" width="966.010937pt" height="201.269375pt" viewBox="0 0 966.010937 201.269375" xmlns="http://www.w3.org/2000/svg" version="1.1">
 <metadata>
  <rdf:RDF xmlns:dc="http://purl.org/dc/elements/1.1/" xmlns:cc="http://creativecommons.org/ns#" xmlns:rdf="http://www.w3.org/1999/02/22-rdf-syntax-ns#">
   <cc:Work>
    <dc:type rdf:resource="http://purl.org/dc/dcmitype/StillImage"/>
    <dc:date>2026-05-14T09:02:29.546710</dc:date>
    <dc:format>image/svg+xml</dc:format>
    <dc:creator>
     <cc:Agent>
      <dc:title>Matplotlib v3.9.3, https://matplotlib.org/</dc:title>
     </cc:Agent>
    </dc:creator>
   </cc:Work>
  </rdf:RDF>
 </metadata>
 <defs>
  <style type="text/css">*{stroke-linejoin: round; stroke-linecap: butt}</style>
 </defs>
 <g id="figure_1">
  <g id="patch_1">
   <path d="M 0 201.269375 
L 966.010937 201.269375 
L 966.010937 0 
L 0 0 
z
" style="fill: #ffffff"/>
  </g>
  <g id="axes_1">
   <g id="patch_2">
    <path d="M 66.010938 173.52 
L 958.810937 173.52 
L 958.810937 7.2 
L 66.010938 7.2 
z
" style="fill: #ffffff"/>
   </g>
   <g id="matplotlib.axis_1">
    <g id="xtick_1">
     <g id="line2d_1">
      <path d="M 106.592756 173.52 
L 106.592756 7.2 
" clip-path="url(#p80fe1cf821)" style="fill: none; stroke: #b0b0b0; stroke-width: 0.8; stroke-linecap: square"/>
     </g>
     <g id="line2d_2">
      <defs>
       <path id="md0e8ab3513" d="M 0 0 
L 0 3.5 
" style="stroke: #000000; stroke-width: 0.8"/>
      </defs>
      <g>
       <use xlink:href="#md0e8ab3513" x="106.592756" y="173.52" style="stroke: #000000; stroke-width: 0.8"/>
      </g>
     </g>
     <g id="text_1">
      <!-- 0 -->
      <g transform="translate(102.139006 191.157813) scale(0.14 -0.14)">
       <defs>
        <path id="DejaVuSans-30" d="M 2034 4250 
Q 1547 4250 1301 3770 
Q 1056 3291 1056 2328 
Q 1056 1369 1301 889 
Q 1547 409 2034 409 
Q 2525 409 2770 889 
Q 3016 1369 3016 2328 
Q 3016 3291 2770 3770 
Q 2525 4250 2034 4250 
z
M 2034 4750 
Q 2819 4750 3233 4129 
Q 3647 3509 3647 2328 
Q 3647 1150 3233 529 
Q 2819 -91 2034 -91 
Q 1250 -91 836 529 
Q 422 1150 422 2328 
Q 422 3509 836 4129 
Q 1250 4750 2034 4750 
z
" transform="scale(0.015625)"/>
       </defs>
       <use xlink:href="#DejaVuSans-30"/>
      </g>
     </g>
    </g>
    <g id="xtick_2">
     <g id="line2d_3">
      <path d="M 263.886625 173.52 
L 263.886625 7.2 
" clip-path="url(#p80fe1cf821)" style="fill: none; stroke: #b0b0b0; stroke-width: 0.8; stroke-linecap: square"/>
     </g>
     <g id="line2d_4">
      <g>
       <use xlink:href="#md0e8ab3513" x="263.886625" y="173.52" style="stroke: #000000; stroke-width: 0.8"/>
      </g>
     </g>
     <g id="text_2">
      <!-- 50 -->
      <g transform="translate(254.979125 191.157813) scale(0.14 -0.14)">
       <defs>
        <path id="DejaVuSans-35" d="M 691 4666 
L 3169 4666 
L 3169 4134 
L 1269 4134 
L 1269 2991 
Q 1406 3038 1543 3061 
Q 1681 3084 1819 3084 
Q 2600 3084 3056 2656 
Q 3513 2228 3513 1497 
Q 3513 744 3044 326 
Q 2575 -91 1722 -91 
Q 1428 -91 1123 -41 
Q 819 9 494 109 
L 494 744 
Q 775 591 1075 516 
Q 1375 441 1709 441 
Q 2250 441 2565 725 
Q 2881 1009 2881 1497 
Q 2881 1984 2565 2268 
Q 2250 2553 1709 2553 
Q 1456 2553 1204 2497 
Q 953 2441 691 2322 
L 691 4666 
z
" transform="scale(0.015625)"/>
       </defs>
       <use xlink:href="#DejaVuSans-35"/>
       <use xlink:href="#DejaVuSans-30" x="63.623047"/>
      </g>
     </g>
    </g>
    <g id="xtick_3">
     <g id="line2d_5">
      <path d="M 421.180494 173.52 
L 421.180494 7.2 
" clip-path="url(#p80fe1cf821)" style="fill: none; stroke: #b0b0b0; stroke-width: 0.8; stroke-linecap: square"/>
     </g>
     <g id="line2d_6">
      <g>
       <use xlink:href="#md0e8ab3513" x="421.180494" y="173.52" style="stroke: #000000; stroke-width: 0.8"/>
      </g>
     </g>
     <g id="text_3">
      <!-- 100 -->
      <g transform="translate(407.819244 191.157813) scale(0.14 -0.14)">
       <defs>
        <path id="DejaVuSans-31" d="M 794 531 
L 1825 531 
L 1825 4091 
L 703 3866 
L 703 4441 
L 1819 4666 
L 2450 4666 
L 2450 531 
L 3481 531 
L 3481 0 
L 794 0 
L 794 531 
z
" transform="scale(0.015625)"/>
       </defs>
       <use xlink:href="#DejaVuSans-31"/>
       <use xlink:href="#DejaVuSans-30" x="63.623047"/>
       <use xlink:href="#DejaVuSans-30" x="127.246094"/>
      </g>
     </g>
    </g>
    <g id="xtick_4">
     <g id="line2d_7">
      <path d="M 578.474362 173.52 
L 578.474362 7.2 
" clip-path="url(#p80fe1cf821)" style="fill: none; stroke: #b0b0b0; stroke-width: 0.8; stroke-linecap: square"/>
     </g>
     <g id="line2d_8">
      <g>
       <use xlink:href="#md0e8ab3513" x="578.474362" y="173.52" style="stroke: #000000; stroke-width: 0.8"/>
      </g>
     </g>
     <g id="text_4">
      <!-- 150 -->
      <g transform="translate(565.113112 191.157813) scale(0.14 -0.14)">
       <use xlink:href="#DejaVuSans-31"/>
       <use xlink:href="#DejaVuSans-35" x="63.623047"/>
       <use xlink:href="#DejaVuSans-30" x="127.246094"/>
      </g>
     </g>
    </g>
    <g id="xtick_5">
     <g id="line2d_9">
      <path d="M 735.768231 173.52 
L 735.768231 7.2 
" clip-path="url(#p80fe1cf821)" style="fill: none; stroke: #b0b0b0; stroke-width: 0.8; stroke-linecap: square"/>
     </g>
     <g id="line2d_10">
      <g>
       <use xlink:href="#md0e8ab3513" x="735.768231" y="173.52" style="stroke: #000000; stroke-width: 0.8"/>
      </g>
     </g>
     <g id="text_5">
      <!-- 200 -->
      <g transform="translate(722.406981 191.157813) scale(0.14 -0.14)">
       <defs>
        <path id="DejaVuSans-32" d="M 1228 531 
L 3431 531 
L 3431 0 
L 469 0 
L 469 531 
Q 828 903 1448 1529 
Q 2069 2156 2228 2338 
Q 2531 2678 2651 2914 
Q 2772 3150 2772 3378 
Q 2772 3750 2511 3984 
Q 2250 4219 1831 4219 
Q 1534 4219 1204 4116 
Q 875 4013 500 3803 
L 500 4441 
Q 881 4594 1212 4672 
Q 1544 4750 1819 4750 
Q 2544 4750 2975 4387 
Q 3406 4025 3406 3419 
Q 3406 3131 3298 2873 
Q 3191 2616 2906 2266 
Q 2828 2175 2409 1742 
Q 1991 1309 1228 531 
z
" transform="scale(0.015625)"/>
       </defs>
       <use xlink:href="#DejaVuSans-32"/>
       <use xlink:href="#DejaVuSans-30" x="63.623047"/>
       <use xlink:href="#DejaVuSans-30" x="127.246094"/>
      </g>
     </g>
    </g>
    <g id="xtick_6">
     <g id="line2d_11">
      <path d="M 893.0621 173.52 
L 893.0621 7.2 
" clip-path="url(#p80fe1cf821)" style="fill: none; stroke: #b0b0b0; stroke-width: 0.8; stroke-linecap: square"/>
     </g>
     <g id="line2d_12">
      <g>
       <use xlink:href="#md0e8ab3513" x="893.0621" y="173.52" style="stroke: #000000; stroke-width: 0.8"/>
      </g>
     </g>
     <g id="text_6">
      <!-- 250 -->
      <g transform="translate(879.70085 191.157813) scale(0.14 -0.14)">
       <use xlink:href="#DejaVuSans-32"/>
       <use xlink:href="#DejaVuSans-35" x="63.623047"/>
       <use xlink:href="#DejaVuSans-30" x="127.246094"/>
      </g>
     </g>
    </g>
   </g>
   <g id="matplotlib.axis_2">
    <g id="ytick_1">
     <g id="line2d_13">
      <path d="M 66.010938 145.980958 
L 958.810937 145.980958 
" clip-path="url(#p80fe1cf821)" style="fill: none; stroke: #b0b0b0; stroke-width: 0.8; stroke-linecap: square"/>
     </g>
     <g id="line2d_14">
      <defs>
       <path id="md8d3f88969" d="M 0 0 
L -3.5 0 
" style="stroke: #000000; stroke-width: 0.8"/>
      </defs>
      <g>
       <use xlink:href="#md8d3f88969" x="66.010938" y="145.980958" style="stroke: #000000; stroke-width: 0.8"/>
      </g>
     </g>
     <g id="text_7">
      <!-- −0.005 -->
      <g transform="translate(7.2 151.299864) scale(0.14 -0.14)">
       <defs>
        <path id="DejaVuSans-2212" d="M 678 2272 
L 4684 2272 
L 4684 1741 
L 678 1741 
L 678 2272 
z
" transform="scale(0.015625)"/>
        <path id="DejaVuSans-2e" d="M 684 794 
L 1344 794 
L 1344 0 
L 684 0 
L 684 794 
z
" transform="scale(0.015625)"/>
       </defs>
       <use xlink:href="#DejaVuSans-2212"/>
       <use xlink:href="#DejaVuSans-30" x="83.789062"/>
       <use xlink:href="#DejaVuSans-2e" x="147.412109"/>
       <use xlink:href="#DejaVuSans-30" x="179.199219"/>
       <use xlink:href="#DejaVuSans-30" x="242.822266"/>
       <use xlink:href="#DejaVuSans-35" x="306.445312"/>
      </g>
     </g>
    </g>
    <g id="ytick_2">
     <g id="line2d_15">
      <path d="M 66.010938 90.36 
L 958.810937 90.36 
" clip-path="url(#p80fe1cf821)" style="fill: none; stroke: #b0b0b0; stroke-width: 0.8; stroke-linecap: square"/>
     </g>
     <g id="line2d_16">
      <g>
       <use xlink:href="#md8d3f88969" x="66.010938" y="90.36" style="stroke: #000000; stroke-width: 0.8"/>
      </g>
     </g>
     <g id="text_8">
      <!-- 0.000 -->
      <g transform="translate(18.931563 95.678906) scale(0.14 -0.14)">
       <use xlink:href="#DejaVuSans-30"/>
       <use xlink:href="#DejaVuSans-2e" x="63.623047"/>
       <use xlink:href="#DejaVuSans-30" x="95.410156"/>
       <use xlink:href="#DejaVuSans-30" x="159.033203"/>
       <use xlink:href="#DejaVuSans-30" x="222.65625"/>
      </g>
     </g>
    </g>
    <g id="ytick_3">
     <g id="line2d_17">
      <path d="M 66.010938 34.739042 
L 958.810937 34.739042 
" clip-path="url(#p80fe1cf821)" style="fill: none; stroke: #b0b0b0; stroke-width: 0.8; stroke-linecap: square"/>
     </g>
     <g id="line2d_18">
      <g>
       <use xlink:href="#md8d3f88969" x="66.010938" y="34.739042" style="stroke: #000000; stroke-width: 0.8"/>
      </g>
     </g>
     <g id="text_9">
      <!-- 0.005 -->
      <g transform="translate(18.931563 40.057948) scale(0.14 -0.14)">
       <use xlink:href="#DejaVuSans-30"/>
       <use xlink:href="#DejaVuSans-2e" x="63.623047"/>
       <use xlink:href="#DejaVuSans-30" x="95.410156"/>
       <use xlink:href="#DejaVuSans-30" x="159.033203"/>
       <use xlink:href="#DejaVuSans-35" x="222.65625"/>
      </g>
     </g>
    </g>
   </g>
   <g id="line2d_19">
    <path d="M 106.592756 90.36 
L 122.322143 85.239362 
L 131.759775 82.38761 
L 138.051529 80.646596 
L 144.343284 79.069768 
L 150.635039 77.686144 
L 156.926794 76.522718 
L 163.218548 75.604176 
L 169.510303 74.952627 
L 175.802058 74.587371 
L 182.093813 74.524677 
L 188.385568 74.777607 
L 194.677322 75.35586 
L 200.969077 76.265655 
L 207.260832 77.509642 
L 213.552587 79.086853 
L 219.844341 80.992683 
L 226.136096 83.218915 
L 232.427851 85.753768 
L 238.719606 88.581988 
L 245.01136 91.684976 
L 251.303115 95.040937 
L 257.59487 98.625073 
L 263.886625 102.409797 
L 273.324257 108.396452 
L 282.761889 114.655148 
L 317.36654 137.926068 
L 326.804172 143.785261 
L 333.095927 147.44663 
L 339.387682 150.86923 
L 345.679436 154.017936 
L 351.971191 156.859503 
L 358.262946 159.36289 
L 364.554701 161.499563 
L 370.846455 163.24377 
L 377.13821 164.572802 
L 383.429965 165.467221 
L 386.575842 165.746318 
L 389.72172 165.911053 
L 392.867597 165.96 
L 396.013474 165.891967 
L 399.159352 165.706003 
L 402.305229 165.401398 
L 405.451107 164.97769 
L 408.596984 164.434659 
L 411.742861 163.772336 
L 414.888739 162.990999 
L 418.034616 162.091175 
L 424.326371 159.93941 
L 430.618126 157.326194 
L 436.90988 154.264564 
L 443.201635 150.77135 
L 449.49339 146.867044 
L 455.785145 142.575633 
L 462.076899 137.92441 
L 468.368654 132.943741 
L 474.660409 127.666814 
L 480.952164 122.12936 
L 490.389796 113.41828 
L 499.827428 104.342752 
L 515.556815 88.797183 
L 531.286202 73.320284 
L 540.723834 64.350653 
L 547.015589 58.59064 
L 553.307343 53.053186 
L 559.599098 47.776259 
L 565.890853 42.79559 
L 572.182608 38.144367 
L 578.474362 33.852956 
L 584.766117 29.94865 
L 591.057872 26.455436 
L 597.349627 23.393806 
L 603.641381 20.78059 
L 609.933136 18.628825 
L 613.079014 17.729001 
L 616.224891 16.947664 
L 619.370768 16.285341 
L 622.516646 15.74231 
L 625.662523 15.318602 
L 628.808401 15.013997 
L 631.954278 14.828033 
L 635.100155 14.76 
L 638.246033 14.808947 
L 641.39191 14.973682 
L 644.537787 15.252779 
L 650.829542 16.147198 
L 657.121297 17.47623 
L 663.413052 19.220437 
L 669.704806 21.35711 
L 675.996561 23.860497 
L 682.288316 26.702064 
L 688.580071 29.85077 
L 694.871825 33.27337 
L 701.16358 36.934739 
L 707.455335 40.798207 
L 716.892967 46.889279 
L 729.476477 55.358676 
L 751.497618 70.261775 
L 760.93525 76.351943 
L 767.227005 80.225812 
L 773.51876 83.913855 
L 779.810515 87.387183 
L 786.102269 90.619574 
L 792.394024 93.587707 
L 798.685779 96.271363 
L 804.977534 98.653597 
L 811.269288 100.72088 
L 817.561043 102.463203 
L 823.852798 103.87415 
L 830.144553 104.950935 
L 836.436307 105.694403 
L 842.728062 106.108998 
L 849.019817 106.20269 
L 855.311572 105.986877 
L 861.603327 105.476247 
L 867.895081 104.688609 
L 874.186836 103.644694 
L 880.478591 102.367932 
L 886.770346 100.884199 
L 893.0621 99.221536 
L 902.499732 96.457922 
L 915.083242 92.438189 
L 918.229119 91.401239 
L 918.229119 91.401239 
" clip-path="url(#p80fe1cf821)" style="fill: none; stroke: #a71930; stroke-width: 1.5; stroke-linecap: square"/>
   </g>
   <g id="line2d_20">
    <path d="M 106.592756 90.36 
L 122.322143 95.480638 
L 131.759775 98.33239 
L 138.051529 100.073404 
L 144.343284 101.650232 
L 150.635039 103.033856 
L 156.926794 104.197282 
L 163.218548 105.115824 
L 169.510303 105.767373 
L 175.802058 106.132629 
L 182.093813 106.195323 
L 188.385568 105.942393 
L 194.677322 105.36414 
L 200.969077 104.454345 
L 207.260832 103.210358 
L 213.552587 101.633147 
L 219.844341 99.727317 
L 226.136096 97.501085 
L 232.427851 94.966232 
L 238.719606 92.138012 
L 245.01136 89.035024 
L 251.303115 85.679063 
L 257.59487 82.094927 
L 263.886625 78.310203 
L 273.324257 72.323548 
L 282.761889 66.064852 
L 317.36654 42.793932 
L 326.804172 36.934739 
L 333.095927 33.27337 
L 339.387682 29.85077 
L 345.679436 26.702064 
L 351.971191 23.860497 
L 358.262946 21.35711 
L 364.554701 19.220437 
L 370.846455 17.47623 
L 377.13821 16.147198 
L 383.429965 15.252779 
L 386.575842 14.973682 
L 389.72172 14.808947 
L 392.867597 14.76 
L 396.013474 14.828033 
L 399.159352 15.013997 
L 402.305229 15.318602 
L 405.451107 15.74231 
L 408.596984 16.285341 
L 411.742861 16.947664 
L 414.888739 17.729001 
L 418.034616 18.628825 
L 424.326371 20.78059 
L 430.618126 23.393806 
L 436.90988 26.455436 
L 443.201635 29.94865 
L 449.49339 33.852956 
L 455.785145 38.144367 
L 462.076899 42.79559 
L 468.368654 47.776259 
L 474.660409 53.053186 
L 480.952164 58.59064 
L 490.389796 67.30172 
L 499.827428 76.377248 
L 515.556815 91.922817 
L 531.286202 107.399716 
L 540.723834 116.369347 
L 547.015589 122.12936 
L 553.307343 127.666814 
L 559.599098 132.943741 
L 565.890853 137.92441 
L 572.182608 142.575633 
L 578.474362 146.867044 
L 584.766117 150.77135 
L 591.057872 154.264564 
L 597.349627 157.326194 
L 603.641381 159.93941 
L 609.933136 162.091175 
L 613.079014 162.990999 
L 616.224891 163.772336 
L 619.370768 164.434659 
L 622.516646 164.97769 
L 625.662523 165.401398 
L 628.808401 165.706003 
L 631.954278 165.891967 
L 635.100155 165.96 
L 638.246033 165.911053 
L 641.39191 165.746318 
L 644.537787 165.467221 
L 650.829542 164.572802 
L 657.121297 163.24377 
L 663.413052 161.499563 
L 669.704806 159.36289 
L 675.996561 156.859503 
L 682.288316 154.017936 
L 688.580071 150.86923 
L 694.871825 147.44663 
L 701.16358 143.785261 
L 707.455335 139.921793 
L 716.892967 133.830721 
L 729.476477 125.361324 
L 751.497618 110.458225 
L 760.93525 104.368057 
L 767.227005 100.494188 
L 773.51876 96.806145 
L 779.810515 93.332817 
L 786.102269 90.100426 
L 792.394024 87.132293 
L 798.685779 84.448637 
L 804.977534 82.066403 
L 811.269288 79.99912 
L 817.561043 78.256797 
L 823.852798 76.84585 
L 830.144553 75.769065 
L 836.436307 75.025597 
L 842.728062 74.611002 
L 849.019817 74.51731 
L 855.311572 74.733123 
L 861.603327 75.243753 
L 867.895081 76.031391 
L 874.186836 77.075306 
L 880.478591 78.352068 
L 886.770346 79.835801 
L 893.0621 81.498464 
L 902.499732 84.262078 
L 915.083242 88.281811 
L 918.229119 89.318761 
L 918.229119 89.318761 
" clip-path="url(#p80fe1cf821)" style="fill: none; stroke-dasharray: 5.55,2.4; stroke-dashoffset: 0; stroke: #00693c; stroke-width: 1.5"/>
   </g>
   <g id="patch_3">
    <path d="M 66.010938 173.52 
L 66.010938 7.2 
" style="fill: none; stroke: #000000; stroke-width: 0.8; stroke-linejoin: miter; stroke-linecap: square"/>
   </g>
   <g id="patch_4">
    <path d="M 958.810937 173.52 
L 958.810937 7.2 
" style="fill: none; stroke: #000000; stroke-width: 0.8; stroke-linejoin: miter; stroke-linecap: square"/>
   </g>
   <g id="patch_5">
    <path d="M 66.010938 173.52 
L 958.810938 173.52 
" style="fill: none; stroke: #000000; stroke-width: 0.8; stroke-linejoin: miter; stroke-linecap: square"/>
   </g>
   <g id="patch_6">
    <path d="M 66.010938 7.2 
L 958.810938 7.2 
" style="fill: none; stroke: #000000; stroke-width: 0.8; stroke-linejoin: miter; stroke-linecap: square"/>
   </g>
   <g id="legend_1">
    <g id="patch_7">
     <path d="M 805.624687 59.49875 
L 949.010938 59.49875 
Q 951.810938 59.49875 951.810938 56.69875 
L 951.810938 17 
Q 951.810938 14.2 949.010938 14.2 
L 805.624687 14.2 
Q 802.824687 14.2 802.824687 17 
L 802.824687 56.69875 
Q 802.824687 59.49875 805.624687 59.49875 
z
" style="fill: #ffffff; opacity: 0.8; stroke: #cccccc; stroke-linejoin: miter"/>
    </g>
    <g id="line2d_21">
     <path d="M 808.424688 25.537813 
L 815.424688 25.537813 
L 822.424688 25.537813 
" style="fill: none; stroke: #a71930; stroke-width: 1.5; stroke-linecap: square"/>
    </g>
    <g id="text_10">
     <!-- c=[0, 1j, (-0-1j)] -->
     <g transform="translate(833.624688 30.437813) scale(0.14 -0.14)">
      <defs>
       <path id="DejaVuSans-63" d="M 3122 3366 
L 3122 2828 
Q 2878 2963 2633 3030 
Q 2388 3097 2138 3097 
Q 1578 3097 1268 2742 
Q 959 2388 959 1747 
Q 959 1106 1268 751 
Q 1578 397 2138 397 
Q 2388 397 2633 464 
Q 2878 531 3122 666 
L 3122 134 
Q 2881 22 2623 -34 
Q 2366 -91 2075 -91 
Q 1284 -91 818 406 
Q 353 903 353 1747 
Q 353 2603 823 3093 
Q 1294 3584 2113 3584 
Q 2378 3584 2631 3529 
Q 2884 3475 3122 3366 
z
" transform="scale(0.015625)"/>
       <path id="DejaVuSans-3d" d="M 678 2906 
L 4684 2906 
L 4684 2381 
L 678 2381 
L 678 2906 
z
M 678 1631 
L 4684 1631 
L 4684 1100 
L 678 1100 
L 678 1631 
z
" transform="scale(0.015625)"/>
       <path id="DejaVuSans-5b" d="M 550 4863 
L 1875 4863 
L 1875 4416 
L 1125 4416 
L 1125 -397 
L 1875 -397 
L 1875 -844 
L 550 -844 
L 550 4863 
z
" transform="scale(0.015625)"/>
       <path id="DejaVuSans-2c" d="M 750 794 
L 1409 794 
L 1409 256 
L 897 -744 
L 494 -744 
L 750 256 
L 750 794 
z
" transform="scale(0.015625)"/>
       <path id="DejaVuSans-20" transform="scale(0.015625)"/>
       <path id="DejaVuSans-6a" d="M 603 3500 
L 1178 3500 
L 1178 -63 
Q 1178 -731 923 -1031 
Q 669 -1331 103 -1331 
L -116 -1331 
L -116 -844 
L 38 -844 
Q 366 -844 484 -692 
Q 603 -541 603 -63 
L 603 3500 
z
M 603 4863 
L 1178 4863 
L 1178 4134 
L 603 4134 
L 603 4863 
z
" transform="scale(0.015625)"/>
       <path id="DejaVuSans-28" d="M 1984 4856 
Q 1566 4138 1362 3434 
Q 1159 2731 1159 2009 
Q 1159 1288 1364 580 
Q 1569 -128 1984 -844 
L 1484 -844 
Q 1016 -109 783 600 
Q 550 1309 550 2009 
Q 550 2706 781 3412 
Q 1013 4119 1484 4856 
L 1984 4856 
z
" transform="scale(0.015625)"/>
       <path id="DejaVuSans-2d" d="M 313 2009 
L 1997 2009 
L 1997 1497 
L 313 1497 
L 313 2009 
z
" transform="scale(0.015625)"/>
       <path id="DejaVuSans-29" d="M 513 4856 
L 1013 4856 
Q 1481 4119 1714 3412 
Q 1947 2706 1947 2009 
Q 1947 1309 1714 600 
Q 1481 -109 1013 -844 
L 513 -844 
Q 928 -128 1133 580 
Q 1338 1288 1338 2009 
Q 1338 2731 1133 3434 
Q 928 4138 513 4856 
z
" transform="scale(0.015625)"/>
       <path id="DejaVuSans-5d" d="M 1947 4863 
L 1947 -844 
L 622 -844 
L 622 -397 
L 1369 -397 
L 1369 4416 
L 622 4416 
L 622 4863 
L 1947 4863 
z
" transform="scale(0.015625)"/>
      </defs>
      <use xlink:href="#DejaVuSans-63"/>
      <use xlink:href="#DejaVuSans-3d" x="54.980469"/>
      <use xlink:href="#DejaVuSans-5b" x="138.769531"/>
      <use xlink:href="#DejaVuSans-30" x="177.783203"/>
      <use xlink:href="#DejaVuSans-2c" x="241.40625"/>
      <use xlink:href="#DejaVuSans-20" x="273.193359"/>
      <use xlink:href="#DejaVuSans-31" x="304.980469"/>
      <use xlink:href="#DejaVuSans-6a" x="368.603516"/>
      <use xlink:href="#DejaVuSans-2c" x="396.386719"/>
      <use xlink:href="#DejaVuSans-20" x="428.173828"/>
      <use xlink:href="#DejaVuSans-28" x="459.960938"/>
      <use xlink:href="#DejaVuSans-2d" x="498.974609"/>
      <use xlink:href="#DejaVuSans-30" x="535.058594"/>
      <use xlink:href="#DejaVuSans-2d" x="598.681641"/>
      <use xlink:href="#DejaVuSans-31" x="634.765625"/>
      <use xlink:href="#DejaVuSans-6a" x="698.388672"/>
      <use xlink:href="#DejaVuSans-29" x="726.171875"/>
      <use xlink:href="#DejaVuSans-5d" x="765.185547"/>
     </g>
    </g>
    <g id="line2d_22">
     <path d="M 808.424688 46.087188 
L 815.424688 46.087188 
L 822.424688 46.087188 
" style="fill: none; stroke-dasharray: 5.55,2.4; stroke-dashoffset: 0; stroke: #00693c; stroke-width: 1.5"/>
    </g>
    <g id="text_11">
     <!-- c=[0, (-0-1j), 1j] -->
     <g transform="translate(833.624688 50.987188) scale(0.14 -0.14)">
      <use xlink:href="#DejaVuSans-63"/>
      <use xlink:href="#DejaVuSans-3d" x="54.980469"/>
      <use xlink:href="#DejaVuSans-5b" x="138.769531"/>
      <use xlink:href="#DejaVuSans-30" x="177.783203"/>
      <use xlink:href="#DejaVuSans-2c" x="241.40625"/>
      <use xlink:href="#DejaVuSans-20" x="273.193359"/>
      <use xlink:href="#DejaVuSans-28" x="304.980469"/>
      <use xlink:href="#DejaVuSans-2d" x="343.994141"/>
      <use xlink:href="#DejaVuSans-30" x="380.078125"/>
      <use xlink:href="#DejaVuSans-2d" x="443.701172"/>
      <use xlink:href="#DejaVuSans-31" x="479.785156"/>
      <use xlink:href="#DejaVuSans-6a" x="543.408203"/>
      <use xlink:href="#DejaVuSans-29" x="571.191406"/>
      <use xlink:href="#DejaVuSans-2c" x="610.205078"/>
      <use xlink:href="#DejaVuSans-20" x="641.992188"/>
      <use xlink:href="#DejaVuSans-31" x="673.779297"/>
      <use xlink:href="#DejaVuSans-6a" x="737.402344"/>
      <use xlink:href="#DejaVuSans-5d" x="765.185547"/>
     </g>
    </g>
   </g>
  </g>
 </g>
 <defs>
  <clipPath id="p80fe1cf821">
   <rect x="66.010938" y="7.2" width="892.8" height="166.32"/>
  </clipPath>
 </defs>
</svg>
